<!-- icon666.com - MILLIONS vector ICONS FREE -->
<svg viewBox="0 0 512 512" xmlns="http://www.w3.org/2000/svg" xmlns:xlink="http://www.w3.org/1999/xlink">
    <linearGradient id="a" gradientUnits="userSpaceOnUse" x1="0" x2="512" y1="256" y2="256">
        <stop offset="0" stop-color="000000"></stop>
        <stop offset="1" stop-color="#4cf00a"></stop>
    </linearGradient>
    <path d="m256 0c-141.484375 0-256 114.496094-256 256 0 141.484375 114.496094 256 256 256 68.378906 0 132.667969-26.628906 181.019531-74.980469 48.351563-48.351562 74.980469-112.640625 74.980469-181.019531 0-141.179688-114.21875-256-256-256zm0 40c57.695312 0 111.9375 22.46875 152.734375 63.265625.351563.351563.691406.710937 1.039063 1.066406-24.949219 7.933594-51.003907 11.953125-77.773438 11.953125-60.117188 0-116.917969-20.523437-162.621094-58.269531 26.953125-11.804687 56.308594-18.015625 86.621094-18.015625zm-123.636719 38.820312c54.675781 50.070313 124.941407 77.464844 199.636719 77.464844 36.203125 0 71.296875-6.371094 104.566406-18.929687 16.730469 25.347656 27.832032 53.851562 32.664063 83.949219-43.632813 16.582031-89.71875 24.980468-137.230469 24.980468-97.585938 0-189.730469-36.011718-261.125-101.722656 15.722656-26.015625 36.882812-48.492188 61.488281-65.742188zm123.636719 393.179688c-89.105469 0-163.699219-53.519531-196.949219-127.054688 82.773438 46.8125 176.101563 71.339844 272.949219 71.339844 24.804688 0 49.542969-1.636718 73.988281-4.867187-40.472656 39.089843-93.574219 60.582031-149.988281 60.582031zm186.914062-107.589844c-36.191406 7.878906-73.460937 11.875-110.914062 11.875-104.433594 0-204.421875-30.703125-289.738281-88.851562-1.496094-10.320313-2.261719-20.816406-2.261719-31.433594 0-25.589844 4.429688-50.492188 12.90625-73.851562 77.453125 67.355468 175.492188 104.136718 279.09375 104.136718 48.226562 0 95.152344-7.863281 139.878906-23.394531-1.125 36.210937-11.128906 70.882813-28.964844 101.519531zm0 0"
          fill="url(#a)"></path>
</svg>